<svg width="125" height="50" viewBox="0 0 125 50" fill="none" xmlns="http://www.w3.org/2000/svg">
<path d="M0 12.7116L6.28508 8.36426V39.1578L0 43.5051V12.7116Z" fill="#980000"/>
<path d="M20.3711 12.7116L27.0579 8.36426V39.1578L20.3711 43.5051V12.7116Z" fill="#980000"/>
<path d="M5.0293 23.0059H15.7593L10.161 26.4475L5.0293 28.9834V23.0059Z" fill="#980000"/>
<path d="M17.0682 24.8172L20.3339 23.0059V28.0777H11.3145L17.0682 24.8172Z" fill="#980000"/>
<path d="M48.551 30.0862C48.551 29.4297 48.3215 28.9277 47.8626 28.5801C47.4037 28.2247 46.5777 27.854 45.3846 27.4678C44.1915 27.0739 43.2469 26.6877 42.5509 26.3092C40.6541 25.2742 39.7057 23.88 39.7057 22.1267C39.7057 21.2152 39.9581 20.4042 40.4629 19.6936C40.9753 18.9753 41.7058 18.4153 42.6542 18.0136C43.6102 17.6119 44.681 17.4111 45.8665 17.4111C47.0596 17.4111 48.1227 17.6313 49.0558 18.0715C49.9889 18.5041 50.7116 19.1182 51.2241 19.9137C51.7442 20.7093 52.0042 21.613 52.0042 22.6249H48.5625C48.5625 21.8525 48.3215 21.2538 47.8397 20.829C47.3579 20.3964 46.681 20.1802 45.8091 20.1802C44.9678 20.1802 44.3138 20.3617 43.8473 20.7247C43.3808 21.08 43.1475 21.5512 43.1475 22.1382C43.1475 22.6867 43.419 23.1462 43.962 23.517C44.5127 23.8877 45.3196 24.2353 46.3827 24.5597C48.3407 25.1545 49.7671 25.8921 50.6619 26.7726C51.5568 27.6532 52.0042 28.75 52.0042 30.0631C52.0042 31.523 51.4574 32.6699 50.3637 33.5041C49.27 34.3306 47.7977 34.7438 45.9467 34.7438C44.6618 34.7438 43.4917 34.5083 42.4362 34.0371C41.3807 33.5582 40.5738 32.9055 40.0155 32.0791C39.4648 31.2526 39.1895 30.2948 39.1895 29.2058H42.6427C42.6427 31.0672 43.744 31.998 45.9467 31.998C46.7651 31.998 47.4037 31.8319 47.8626 31.4998C48.3215 31.1599 48.551 30.6888 48.551 30.0862ZM72.0811 20.4583H66.9643V34.5121H63.5226V20.4583H58.4747V17.6429H72.0811V20.4583ZM84.4486 27.7459L82.6585 29.6923V34.5121H79.2171V17.6429H82.6585V25.2896L84.1732 23.1926L88.4296 17.6429H92.6625L86.7313 25.139L92.835 34.5121H88.7387L84.4486 27.7459ZM103.642 34.5121H100.2V17.6429H103.642V34.5121Z" fill="black"/>
</svg>
